PathFileType	4	(X/Y/Z)	Patient4_TMGait_0pt3_03_right_30.trc.trc
DataRate	CameraRate	NumFrames	NumMarkers	Units	OrigDataRate	OrigDataStartFrame	OrigNumFrames
54.901960784314	54.901960784314	4	33	mm	54.901960784314	53	       141
Frame#	Time	Sacral			L.Shoulder			Chest			R.Shoulder			Neck			R.ASIS			L.ASIS			R.Thigh.Superior			R.Thigh.Lateral			R.Thigh.Inferior			R.Patella			L.Thigh.Superior			L.Thigh.Lateral			L.Thigh.Inferior			L.Patella			L.Shank.Superior			L.Shank.Lateral			L.Shank.Inferior			R.Shank.Superior			R.Shank.Lateral			R.Shank.Inferior			R.Heel			R.Midfoot.Superior			R.Midfoot.Lateral			R.Toe			L.Heel			L.Midfoot.Lateral			L.Midfoot.Superior			L.Toe			L.Elbow			L.Wrist			R.Elbow			R.Wrist			
		X1	Y1	Z1	X2	Y2	Z2	X3	Y3	Z3	X4	Y4	Z4	X5	Y5	Z5	X6	Y6	Z6	X7	Y7	Z7	X8	Y8	Z8	X9	Y9	Z9	X10	Y10	Z10	X11	Y11	Z11	X12	Y12	Z12	X13	Y13	Z13	X14	Y14	Z14	X15	Y15	Z15	X16	Y16	Z16	X17	Y17	Z17	X18	Y18	Z18	X19	Y19	Z19	X20	Y20	Z20	X21	Y21	Z21	X22	Y22	Z22	X23	Y23	Z23	X24	Y24	Z24	X25	Y25	Z25	X26	Y26	Z26	X27	Y27	Z27	X28	Y28	Z28	X29	Y29	Z29	X30	Y30	Z30	X31	Y31	Z31	X32	Y32	Z32	X33	Y33	Z33	

53	56.957142857143	721.915003956294	988.721738066518	603.571452622138	884.656035975024	1412.564566808636	394.891224638228	1001.320873446884	1349.448037362260	547.990644417329	934.666586444166	1425.114448502470	728.249588481313	876.537154758169	1478.912510224288	552.882822207614	966.061293610182	925.950542118658	692.523034698598	917.718685134146	950.279550065265	423.589340641175	1015.604774890161	731.301059207506	642.990957432128	947.963116899269	611.570997308156	700.178090115599	1018.790841200130	569.331491026607	608.014132584172	1023.561240638349	472.925795709216	608.428733046644	1007.737159840604	766.856927666228	443.836971377499	961.291321283302	643.132891105738	363.655508602722	1067.251346180757	580.154452281767	421.975891776856	1078.914346712178	490.265824995385	407.276391660543	1008.626288279116	426.289917830439	396.961017223442	861.197471874553	391.421055846555	359.527322966958	851.871206961169	256.218410501671	399.038847243215	977.150083218773	386.429882465278	616.112433570437	895.122778924024	292.464632053929	681.234130394515	911.895742133156	196.047599383530	612.303733422822	751.345422674457	44.418537588102	589.923021264148	924.198882984906	96.238361718760	619.816133344693	836.512449009400	37.416789903109	661.481199074756	1044.606200289410	41.793756716499	645.631314862805	667.610098194854	199.247143969035	453.178246734987	708.943478142856	153.631749411723	363.659819089623	816.051070817556	151.173265265314	370.593032057201	877.809547037022	34.521732229090	325.972635111083	858.442333755212	1052.079970896375	297.673003435769	921.509692935744	798.799706707409	298.517555378748	984.740187770413	1084.533489345256	865.961823633486	1194.823529286931	930.888230440353	863.735922955610	
54	56.975357142857	720.046981107051	988.707741272487	606.335884277104	881.897252053093	1411.487111549636	395.390916140924	1000.378726770044	1348.316920885361	547.122069699345	936.331240074180	1424.664540101858	728.086150352232	876.251449865564	1478.226550314206	553.247170356853	964.997873192875	925.145148844708	692.703281227597	913.900517179084	949.806701567026	424.295174490725	1013.579190132474	730.301721122217	642.768250237118	946.134754851007	610.712994913413	700.333796944884	1016.186992990001	568.428074334698	607.504102205683	1020.619597574445	471.938547452421	607.767592958886	1005.536697648974	768.688187577198	444.103567411476	960.021057301675	644.440898321241	364.105866258540	1067.199598814663	582.945930593143	421.598646009448	1080.452884705613	493.742036012194	406.771361664806	1012.477353805605	428.155889381457	396.553145284851	866.461898659589	387.453434407454	360.272961161170	863.427948976463	251.872240251796	399.128800869084	973.714741225889	385.548856465958	615.712942259494	891.400164408665	291.971035425461	681.113364993077	907.240884206369	195.539215378060	612.130670101775	745.860288685627	44.402109533518	590.012406736592	918.728248870470	96.166883991608	619.828410530780	831.043270971963	37.391472946459	661.579132115012	1039.136272866080	41.686515862155	645.671230730274	682.453495223623	184.159616010107	454.301848010400	725.687492308877	143.374189795696	363.516044480535	832.564000041673	147.365872509524	369.893326218947	900.867458664065	36.028432788059	322.264991526021	843.420624954954	1051.612968022012	300.470731564922	892.656646118644	795.396191155506	305.057214715476	996.267649398945	1086.452689546906	866.264426071439	1216.262943130178	947.835491291451	859.187507754269	
55	56.993571428571	718.215274943618	989.312991855387	608.818862798493	879.148091997721	1411.066423000595	395.840959475480	999.502652374555	1347.674766273381	546.049673294196	938.214562673729	1424.647368930248	727.730980581496	876.016501402573	1478.044080055945	553.510032251423	963.859322111958	924.727492876783	692.521034416412	910.082175519578	949.851820821232	424.656251142222	1010.966963794190	729.457671185485	642.360093066114	943.471997357884	610.228498809625	700.455760477633	1012.615265937641	567.691426068116	607.007314051304	1016.558774051106	471.285282584634	607.199129840764	1002.859522880291	770.588155609836	444.194719555479	957.879122725834	645.832128433633	364.474085035928	1065.956281952662	585.561538004755	421.198854267687	1080.751299419633	497.345832879547	406.353886304755	1015.683802497631	430.121966589861	396.063709093617	872.031496670699	382.462638812815	360.250957566068	876.239824429512	246.843892152927	398.582743515956	969.374660573543	384.996125516307	615.413884551676	887.002057653951	291.626990890072	681.072912754750	902.215116393748	195.219116813127	612.028277114766	740.349256835220	44.366515929666	590.106984073905	913.236161157365	96.116459285557	619.871965883756	825.552146574899	37.355769417581	661.683284259545	1033.637056953063	41.626476295043	645.699520356583	699.553810314742	167.292108675606	453.960553393942	745.087119596665	131.661967773200	362.237958140409	851.284792211838	142.761799890832	368.583348615047	926.780583444710	37.692347200691	318.513898964914	828.232288335557	1052.366519494820	303.117989838953	864.866942899323	794.282436989757	311.707082817518	1008.324261210175	1089.303691554477	866.255691528864	1237.024984318550	966.434470203415	854.112437388444	
56	57.011785714286	716.445919648869	990.544118246875	611.014504390017	876.431695353375	1411.315299958236	396.229593347144	998.697037970404	1347.543260029462	544.773285919989	940.299488516926	1425.083679346296	727.171080246161	875.828059509641	1478.372859512493	553.662333516623	962.653320132338	924.702676355532	691.989992238157	906.311217624184	950.427728413772	424.676471618075	1007.778259594071	728.782316679307	641.796927831690	939.974578869192	610.130543509343	700.571055183207	1008.072760872340	567.136083769359	606.560257553890	1011.376128091504	470.979576799533	606.764518021389	999.707547182952	772.501502595590	444.171613378393	954.897394055818	647.282012016256	364.763598838458	1063.486942988457	587.913916323559	420.862969349388	1079.769238080457	501.006409524271	406.104462944652	1018.168838477023	432.211596166292	395.562207777057	877.950322071541	376.692971512902	359.440734803085	890.168036662386	241.498925218628	397.439056661773	964.127859466172	384.786817789957	615.248581950697	881.921237537707	291.442423128409	681.133841006336	896.812945131955	195.095367955050	612.009609721316	734.810588260561	44.315399646880	590.205158879280	907.723442683249	96.086809485694	619.947284911208	820.038345825637	37.311237415621	661.791614900816	1028.107420088905	41.612198696090	645.715188350493	718.850739508099	149.451037289765	452.146132869146	766.990482170882	119.130290720627	359.889136928006	871.975269686512	137.746725995045	366.737173213075	954.986097338716	39.697378156458	314.991893147060	813.099077762635	1054.339757908729	305.659442991576	838.331655216281	795.221701568178	318.382348458550	1020.827452077541	1093.133764433766	865.906289246191	1256.936985008921	986.574847602747	848.564737139992	
